<svg width="173" height="68" viewBox="0 0 173 68" fill="none" xmlns="http://www.w3.org/2000/svg">
<path d="M33.408 55.52H0.96V42.368L30.816 0.799995H46.464V44.384H54.624V55.52H46.464V68H33.408V55.52ZM33.984 44.768V15.392H33.6L13.728 43.424V44.768H33.984ZM60.8738 56.864V11.936L72.0098 0.799995H101.77L112.906 11.936V56.864L101.77 68H72.0098L60.8738 56.864ZM95.6258 56.864L99.8498 52.64V16.16L95.6258 11.936H78.1538L73.9298 16.16V52.64L78.1538 56.864H95.6258ZM151.627 55.52H119.179V42.368L149.035 0.799995H164.683V44.384H172.843V55.52H164.683V68H151.627V55.52ZM152.203 44.768V15.392H151.819L131.947 43.424V44.768H152.203Z" fill="#AE4DA5"/>
</svg>
